<?xml version="1.0" encoding="UTF-8" ?>
<!DOCTYPE svg PUBLIC "-//W3C//DTD SVG 1.1//EN" "http://www.w3.org/Graphics/SVG/1.1/DTD/svg11.dtd">
<svg width="164px" height="88px" viewBox="0 0 164 88" version="1.1" xmlns="http://www.w3.org/2000/svg">
<path fill="#ffffff" stroke="#ffffff" stroke-width="0.09375" opacity="1.00" d=" M 84.0 15.8 C 91.8 12.9 100.9 13.5 108.1 17.8 C 115.5 22.1 120.6 30.0 121.8 38.5 C 130.4 36.1 140.2 42.0 141.7 50.9 C 143.7 60.0 136.3 69.7 127.1 69.9 C 112.7 70.1 98.3 69.9 84.0 70.0 C 84.0 51.9 84.0 33.9 84.0 15.8 Z" />
<path fill="#ffffff" stroke="#ffffff" stroke-width="0.09375" opacity="1.00" d=" M 77.6 20.5 C 78.6 19.1 80.9 20.2 80.7 21.9 C 81.7 30.2 81.6 38.6 81.7 46.9 C 81.7 54.3 82.1 61.8 80.7 69.0 C 80.7 70.7 78.2 71.3 77.5 69.7 C 76.4 65.6 76.3 61.2 76.2 57.0 C 76.1 46.3 76.3 35.6 76.9 25.0 C 77.1 23.5 77.0 21.9 77.6 20.5 Z" />
<path fill="#ffffff" stroke="#ffffff" stroke-width="0.09375" opacity="1.00" d=" M 53.7 26.6 C 54.6 25.0 56.9 26.4 56.5 28.1 C 57.2 41.4 58.7 54.8 56.8 68.1 C 57.2 70.0 54.6 71.7 53.4 69.8 C 51.1 58.3 52.6 46.5 53.0 35.0 C 53.3 32.2 52.9 29.3 53.7 26.6 Z" />
<path fill="#ffffff" stroke="#ffffff" stroke-width="0.09375" opacity="1.00" d=" M 61.8 26.6 C 62.7 25.1 64.8 26.4 64.6 28.0 C 65.3 41.3 66.4 54.8 64.8 68.1 C 65.1 70.1 62.7 71.6 61.4 69.8 C 59.4 57.7 60.7 45.3 61.0 33.0 C 61.2 30.9 60.8 28.6 61.8 26.6 Z" />
<path fill="#ffffff" stroke="#ffffff" stroke-width="0.09375" opacity="1.00" d=" M 69.6 28.6 C 70.7 27.3 72.8 28.3 72.7 29.9 C 73.5 38.2 73.6 46.7 73.7 55.0 C 73.6 60.0 73.6 64.9 72.5 69.7 C 71.8 71.3 69.2 70.7 69.3 69.0 C 67.6 57.5 68.5 45.7 68.9 34.1 C 69.1 32.3 68.9 30.3 69.6 28.6 Z" />
<path fill="#ffffff" stroke="#ffffff" stroke-width="0.09375" opacity="1.00" d=" M 45.7 31.6 C 46.7 29.8 48.9 31.4 48.6 33.1 C 49.3 45.0 50.4 57.1 48.6 69.0 C 48.7 70.7 46.1 71.4 45.4 69.8 C 43.5 58.6 44.6 47.2 45.1 36.0 C 45.2 34.5 45.2 33.0 45.7 31.6 Z" />
<path fill="#ffffff" stroke="#ffffff" stroke-width="0.09375" opacity="1.00" d=" M 29.5 39.4 C 30.7 37.4 32.7 39.2 32.6 40.9 C 33.3 50.1 34.0 59.4 32.3 68.6 C 31.4 69.7 30.5 69.7 29.6 68.6 C 28.0 59.0 28.5 49.1 29.5 39.4 Z" />
<path fill="#ffffff" stroke="#ffffff" stroke-width="0.09375" opacity="1.00" d=" M 37.7 40.5 C 38.4 39.1 40.3 39.8 40.4 41.2 C 41.7 50.4 41.9 59.8 40.7 69.0 C 40.8 71.1 37.1 71.2 37.2 69.0 C 36.2 59.6 35.9 49.8 37.7 40.5 Z" />
<path fill="#ffffff" stroke="#ffffff" stroke-width="0.09375" opacity="1.00" d=" M 20.9 52.1 C 21.2 49.3 20.8 46.0 23.1 43.9 C 25.0 46.2 24.8 49.3 25.1 52.1 C 25.4 56.2 25.6 60.8 22.9 64.2 C 20.4 60.7 20.7 56.2 20.9 52.1 Z" />
</svg>
